<svg width="720" height="176" viewBox="0 0 720 176" fill="none" xmlns="http://www.w3.org/2000/svg">
<g clip-path="url(#clip0_81_47)">
<path d="M46.9639 67.9636H54.3275V74.6727C57.4366 69.2727 63.3275 67.9636 67.9093 67.9636H72.1639V75.4909H68.5639C62.3457 75.4909 54.8184 77.9454 54.8184 83.6727V114.436H46.9639V67.9636Z" fill="#FF0000"/>
<path d="M83.2911 92.509C83.9456 102.982 89.5093 108.545 97.5274 108.545C104.891 108.545 108.818 104.454 109.964 100.2L117.327 101.509C115.037 110.345 108 115.418 97.2002 115.418C83.782 115.418 75.4365 106.254 75.4365 91.1999C75.4365 75.6544 84.9274 66.9817 97.3638 66.9817C109.8 66.9817 117.655 75.1635 117.655 89.3999V92.6726L83.2911 92.509ZM83.4547 86.1271H109.8C109.473 78.9271 105.546 73.6908 97.3638 73.6908C90.0002 73.6908 84.9274 78.5999 83.4547 86.1271Z" fill="#FF0000"/>
<path d="M161.182 108.545C158.237 113.127 153.001 115.418 146.128 115.418C133.364 115.418 124.364 106.582 124.364 91.0364C124.364 75.8182 133.692 66.8182 146.946 66.8182C152.673 66.8182 157.746 68.9455 161.019 72.7091V48H168.873V114.436H161.346L161.182 108.545ZM160.855 88.9091C160.855 78.9273 154.637 74.0182 146.619 74.0182C137.782 74.0182 132.055 80.5636 132.055 91.2C132.055 101.182 137.292 108.545 146.455 108.545C155.782 108.545 160.692 101.836 160.692 93.1636L160.855 88.9091Z" fill="#FF0000"/>
<path d="M174.109 133.418V125.727H219.273V133.418H174.109Z" fill="#FF0000"/>
<path d="M224.509 67.9635H232.037V74.0181C235.146 69.4362 240.873 66.9817 246.437 66.9817C254.291 66.9817 259.691 70.4181 261.982 75.4908C264.927 69.9271 271.637 66.9817 277.855 66.9817C288.327 66.9817 295.037 72.709 295.037 83.6726V114.436H287.182V84.8181C287.182 78.4362 284.073 74.0181 276.382 74.0181C269.182 74.0181 263.618 78.9271 263.618 86.6181V114.436H255.764V84.8181C255.764 78.4362 252.491 74.0181 244.8 74.0181C237.6 74.0181 232.2 78.9271 232.2 86.6181V114.436H224.346L224.509 67.9635Z" fill="#FF0000"/>
<path d="M334.473 109.036C331.528 112.8 326.455 115.582 319.746 115.582C309.601 115.582 303.219 110.345 303.219 101.673C303.219 92.0181 310.091 88.0908 320.891 87.7635C325.637 87.5999 329.728 87.7635 333.982 87.9271V83.8362C333.982 76.9635 329.728 74.0181 323.673 74.0181C316.964 74.0181 313.855 77.7817 312.382 82.3635L305.019 80.7271C306.982 72.5453 313.364 66.9817 323.837 66.9817C334.473 66.9817 342.001 71.8908 342.001 83.3453V114.436H334.637L334.473 109.036ZM321.219 93.8181C314.51 94.1453 311.073 96.7635 311.073 101.509C311.073 106.091 314.51 108.873 319.91 108.873C327.764 108.873 333.819 104.618 333.819 98.3999V93.8181C330.055 93.6544 325.637 93.6544 321.219 93.8181Z" fill="#FF0000"/>
<path d="M388.146 108.545C385.201 113.127 379.965 115.418 373.092 115.418C360.328 115.418 351.328 106.582 351.328 91.0364C351.328 75.8182 360.655 66.8182 373.91 66.8182C379.637 66.8182 384.71 68.9455 387.819 72.7091V48H395.674V114.436H388.146V108.545ZM387.819 88.9091C387.819 78.9273 381.601 74.0182 373.583 74.0182C364.746 74.0182 359.019 80.5636 359.019 91.2C359.019 101.182 364.255 108.545 373.583 108.545C382.91 108.545 387.819 101.836 387.819 93.1636V88.9091Z" fill="#FF0000"/>
<path d="M401.073 133.418V125.727H446.073V133.418H401.073Z" fill="#FF0000"/>
<path d="M451.473 67.4727H459.327V75.3272H467.182V83.1818H459.327V114.436H451.473V67.4727ZM467.182 67.4727H478.964V75.3272H467.182V67.4727Z" fill="black"/>
<path d="M484.854 75.3272H492.709V106.582H484.854V75.3272ZM520.036 75.3272H492.709V67.4727H520.036V75.3272ZM492.709 106.582H520.036V114.436H492.709V106.582ZM520.036 106.582V75.3272H527.891V106.582H520.036Z" fill="black"/>
<path d="M539.182 48H547.036V75.3273H554.891V83.1818H547.036V98.8909H554.891V106.745H547.036V114.6H539.182V48ZM554.891 67.4727H574.527V75.3273H554.891V67.4727ZM554.891 106.582H574.527V114.436H554.891V106.582ZM574.363 106.582V75.3273H582.218V106.582H574.363Z" fill="black"/>
<path d="M592.2 75.3272H600.055V106.582H592.2V75.3272ZM627.382 75.3272H600.055V67.4727H627.382V75.3272ZM600.055 106.582H627.382V114.436H600.055V106.582ZM627.382 106.582V75.3272H635.236V106.582H627.382Z" fill="black"/>
<path d="M649.637 75.3273H641.782V67.4727H649.637V55.6909H657.491V67.4727H673.2V75.3273H657.491V106.582H649.637V75.3273ZM657.328 106.582H673.037V114.436H657.328V106.582Z" fill="black"/>
</g>
<defs>
<clipPath id="clip0_81_47">
<rect width="720" height="176" fill="white"/>
</clipPath>
</defs>
</svg>
