<svg width="70" height="40" viewBox="0 0 70 40" fill="none" xmlns="http://www.w3.org/2000/svg">
<g clip-path="url(#clip0_287_40)">
<path d="M7.94434 21.5622V9.3877H14.0203V21.9563C14.0203 23.8282 15.2611 25.7424 17.7286 25.7424C20.1532 25.7424 21.4083 23.8282 21.4083 21.9563V9.3877H27.4843V21.5341C27.4843 26.3898 24.4035 31.1611 17.7428 31.1611C11.0536 31.147 7.94434 26.3757 7.94434 21.5622Z" fill="white"/>
<path d="M33.4318 2.02674H30.4509L28.4684 2.56158V3.26531H21.9788V2.51935L19.9963 1.75932H18.3846L18.0423 1.57635C18.0566 1.54821 18.0566 1.50598 18.0566 1.47783C18.0566 1.33709 17.971 1.22449 17.8427 1.16819V0H17.5859V1.16819C17.4576 1.22449 17.372 1.33709 17.372 1.47783C17.372 1.52006 17.3862 1.54821 17.3862 1.57635L17.0439 1.75932H15.3609L13.464 2.5475V3.26531H6.94594V2.56158L4.96342 2.02674H1.98252L0 2.56158V5.36242V22.6882C0 32.2308 7.87302 40 17.5431 40H17.8712C27.5413 40 35.4143 32.2308 35.4143 22.6882V3.63125V2.57565L33.4318 2.02674ZM32.8898 22.6882C32.8898 30.8656 26.1578 37.5088 17.8712 37.5088H17.5431C9.2565 37.5088 2.5245 30.8656 2.5245 22.6882V5.64391H32.8898V22.6882Z" fill="white"/>
<path d="M9.25651 29.458L10.4118 30.6121L10.1123 30.9077L9.68439 30.4855L8.5719 31.5692L8.25812 31.2455L9.37061 30.1617L8.95699 29.7536L9.25651 29.458Z" fill="white"/>
<path d="M11.5671 31.3862C12.0663 31.71 12.2374 32.287 11.8809 32.8078C11.5528 33.3004 10.9395 33.413 10.4261 33.0893C9.92686 32.7656 9.75571 32.1885 10.1123 31.6677C10.4261 31.1892 11.0394 31.0484 11.5671 31.3862ZM10.6685 32.7374C10.9823 32.9485 11.2961 32.8219 11.4815 32.5544C11.6812 32.2589 11.5956 31.9211 11.3389 31.7522C11.0679 31.5692 10.7256 31.6396 10.5259 31.9352C10.3262 32.2166 10.3975 32.5685 10.6685 32.7374Z" fill="white"/>
<path d="M12.8507 32.1885L13.2928 32.3433L13.5923 33.3144L14.4196 32.7233L14.8189 32.85L14.1771 34.7078L13.7492 34.5671L14.1629 33.3848L13.3784 33.9337L13.3214 33.9056L13.0504 33.0189L12.6367 34.2011L12.2089 34.0463L12.8507 32.1885Z" fill="white"/>
<path d="M15.361 33.4692C15.4037 33.1737 15.6747 32.9344 16.0741 32.9907C16.3308 33.0188 16.5162 33.1314 16.6303 33.2722L16.3451 33.5818C16.2738 33.4833 16.2167 33.427 16.0598 33.4129C15.9315 33.3988 15.8601 33.4411 15.8459 33.5396C15.8031 33.8633 16.6303 33.8915 16.559 34.5248C16.5162 34.8626 16.1882 35.0596 15.8031 35.0174C15.5321 34.9893 15.2469 34.8345 15.1755 34.6093L15.4751 34.3418C15.5749 34.4967 15.7318 34.5811 15.8744 34.5952C15.9885 34.6093 16.0741 34.553 16.0741 34.4685C16.1169 34.1729 15.2896 34.1026 15.361 33.4692Z" fill="white"/>
<path d="M17.3434 33.1317H17.7999L17.8141 33.9761L18.4417 33.1176L18.9979 33.1035L18.2705 34.0184L19.0978 35.0599L18.513 35.074L17.8141 34.1591L17.8426 35.088L17.3862 35.1021L17.3434 33.1317Z" fill="white"/>
<path d="M20.3182 33.7771L19.5717 33.894L19.6343 34.2832L20.3808 34.1663L20.3182 33.7771Z" fill="white"/>
<path d="M21.1088 32.6953L21.4083 32.6108L21.9503 34.4968L21.5367 34.6094L21.1659 33.3005L21.009 33.4835L20.6952 33.202L21.1088 32.6953Z" fill="white"/>
<path d="M22.6349 33.737C22.5208 33.4978 22.5779 33.2866 22.692 33.16V33.1459C22.5494 33.1318 22.364 33.0474 22.2641 32.8362C22.1358 32.5548 22.3069 32.2451 22.6492 32.0903C22.9915 31.9355 23.3481 32.0058 23.4764 32.2733C23.562 32.4422 23.5478 32.6533 23.4194 32.8081V32.8222C23.5905 32.794 23.8045 32.8644 23.9186 33.1037C24.0755 33.4415 23.8901 33.7511 23.5192 33.92C23.1341 34.103 22.7776 34.0467 22.6349 33.737ZM22.9915 32.7799C23.1056 32.7236 23.1199 32.611 23.0914 32.5407C23.0486 32.4422 22.9487 32.414 22.8204 32.4703C22.692 32.5266 22.6635 32.6392 22.7063 32.7096C22.749 32.794 22.8346 32.8503 22.963 32.794L22.9915 32.7799ZM23.1484 33.174C23.0343 33.2303 22.9487 33.3429 23.0058 33.4696C23.0486 33.5681 23.1627 33.6244 23.3338 33.54C23.5335 33.4555 23.5335 33.3429 23.4907 33.2444C23.4337 33.1177 23.3053 33.1037 23.1769 33.16L23.1484 33.174Z" fill="white"/>
<path d="M23.6476 31.6116L24.703 30.8516L24.8742 31.0908L25.3306 32.8361L24.9455 33.1035L24.5461 31.4849L23.9043 31.9494L23.6476 31.6116Z" fill="white"/>
<path d="M26.1008 31.5835C25.9154 31.4006 25.8868 31.1894 25.9439 31.0206C25.8013 31.0628 25.6016 31.0487 25.4304 30.8798C25.2022 30.6687 25.2593 30.3168 25.516 30.0494C25.7727 29.782 26.1293 29.7257 26.3575 29.9368C26.5001 30.0635 26.5572 30.2746 26.5001 30.4576C26.657 30.359 26.8852 30.359 27.0707 30.542C27.3416 30.7954 27.2846 31.1613 26.9993 31.4569C26.7141 31.7524 26.3433 31.8228 26.1008 31.5835ZM26.1008 30.5702C26.1864 30.4716 26.1721 30.3731 26.1008 30.3027C26.0152 30.2324 25.9154 30.2324 25.8155 30.3309C25.7157 30.4294 25.73 30.542 25.8013 30.5983C25.8583 30.6546 25.9724 30.6828 26.0723 30.5842L26.1008 30.5702ZM26.386 30.8798C26.3005 30.9643 26.2577 31.105 26.3575 31.2035C26.4431 31.2739 26.5572 31.288 26.6856 31.1613C26.8424 31.0065 26.7997 30.908 26.7141 30.8376C26.6142 30.7391 26.4859 30.7672 26.4003 30.8657L26.386 30.8798Z" fill="white"/>
<path d="M39.8072 13.8774H43.6724V14.6375H42.1463V18.508H41.3191V14.6375H39.793V13.8774H39.8072Z" fill="white"/>
<path d="M45.0559 15.4536C46.0543 15.4536 46.6961 16.1292 46.6961 17.0159C46.6961 17.9167 46.0543 18.5782 45.0559 18.5782C44.0575 18.5782 43.4157 17.9026 43.4157 17.0159C43.4157 16.1292 44.0575 15.4536 45.0559 15.4536ZM45.0559 17.8744C45.5266 17.8744 45.8832 17.5367 45.8832 17.0159C45.8832 16.5092 45.5266 16.1714 45.0559 16.1714C44.5995 16.1714 44.2429 16.5092 44.2429 17.0159C44.2429 17.5226 44.5853 17.8744 45.0559 17.8744Z" fill="white"/>
<path d="M51.9306 18.5081H51.1604V16.7628C51.1604 16.3969 51.0035 16.1998 50.6469 16.1998C50.3617 16.1998 50.1335 16.3406 50.0194 16.5376C50.0194 16.5798 50.0194 16.6924 50.0194 16.7628V18.5221H49.2492V16.7206C49.2492 16.4109 49.078 16.1998 48.75 16.1998C48.479 16.1998 48.2508 16.3124 48.1224 16.5235V18.5221H47.3522V15.5383H48.1224V15.8761C48.3364 15.6368 48.6929 15.4961 49.0638 15.4961C49.5202 15.4961 49.8339 15.7072 49.9481 15.9746C50.162 15.6931 50.5043 15.4961 50.975 15.4961C51.5312 15.4961 51.9448 15.7635 51.9448 16.5798V18.5081H51.9306Z" fill="white"/>
<path d="M52.6009 16.3685C52.6009 15.7915 53.0858 15.4678 53.7134 15.4678C54.2982 15.4678 54.669 15.6789 54.8544 15.8478L54.5692 16.3967C54.3838 16.256 54.07 16.1152 53.7562 16.1152C53.528 16.1152 53.3854 16.2419 53.3854 16.3685C53.3854 16.8612 55.0113 16.5937 55.0113 17.6493C55.0113 18.2405 54.5264 18.6064 53.7847 18.6064C53.2285 18.6064 52.658 18.3108 52.5296 18.0997L52.9004 17.6071C53.0858 17.8042 53.5423 17.9731 53.8418 17.9731C54.07 17.9731 54.2411 17.8745 54.2411 17.6916C54.2269 17.1849 52.6009 17.4523 52.6009 16.3685Z" fill="white"/>
<path d="M55.6389 13.8774H56.409V18.508H55.6389V13.8774ZM57.3504 16.8894L58.6198 18.508H57.6214L56.4233 16.9457L57.5073 15.5242H58.4771L57.3504 16.8894Z" fill="white"/>
<path d="M40.1353 21.7451C40.1353 21.0555 40.6915 20.4644 41.6044 20.4644C42.1749 20.4644 42.6598 20.6614 42.9451 20.957L42.5029 21.5622C42.2747 21.337 42.0465 21.2244 41.6757 21.2244C41.2621 21.2244 41.0196 21.4355 41.0196 21.7311C41.0196 22.6881 43.1447 22.3926 43.1447 23.9267C43.1447 24.7149 42.4601 25.2356 41.5758 25.2356C40.9768 25.2356 40.2637 24.9823 40.0355 24.5038L40.5061 23.9408C40.7771 24.2926 41.2193 24.4615 41.5901 24.4615C41.9752 24.4615 42.2747 24.2645 42.2747 23.9126C42.2747 23.0259 40.1353 23.2511 40.1353 21.7451Z" fill="white"/>
<path d="M43.8151 21.3652H44.5853V22.1956H45.5551V22.9134H44.5853V23.9972C44.5853 24.3209 44.6994 24.532 44.9418 24.532C45.1558 24.532 45.2984 24.4335 45.3982 24.3631L45.6265 24.9543C45.441 25.095 45.1273 25.2498 44.7279 25.2498C44.0433 25.2498 43.7866 24.8135 43.7866 24.0535V21.3652H43.8151Z" fill="white"/>
<path d="M46.2825 22.4065C46.5393 22.2517 46.9529 22.125 47.3522 22.125C48.2508 22.125 48.5646 22.5754 48.5646 23.3636V25.1792H47.8942V24.8414C47.7373 25.0666 47.4093 25.2214 46.9957 25.2214C46.4394 25.2214 46.0543 24.8836 46.0543 24.3066C46.0543 23.6451 46.5393 23.3354 47.1526 23.3354C47.4235 23.3354 47.6945 23.4199 47.8372 23.5325C47.8514 23.0398 47.7231 22.7584 47.2667 22.7584C46.9243 22.7584 46.6961 22.871 46.4679 22.9695L46.2825 22.4065ZM47.8229 24.3066V23.9969C47.6945 23.8984 47.5091 23.8562 47.2952 23.8562C47.0385 23.8562 46.8102 23.9688 46.8102 24.2221C46.8102 24.4473 46.9957 24.574 47.2381 24.574C47.5662 24.574 47.7373 24.4332 47.8229 24.3066Z" fill="white"/>
<path d="M49.2777 21.3652H50.0479V22.1956H51.0177V22.9134H50.0479V23.9972C50.0479 24.3209 50.162 24.532 50.4044 24.532C50.6184 24.532 50.761 24.4335 50.8608 24.3631L51.089 24.9543C50.9036 25.095 50.5898 25.2498 50.1905 25.2498C49.5059 25.2498 49.2491 24.8135 49.2491 24.0535V21.3652H49.2777Z" fill="white"/>
<path d="M54.2269 24.8699C53.9273 25.1233 53.4995 25.2359 53.0716 25.2359C52.1017 25.2359 51.4456 24.6166 51.4456 23.6736C51.4456 22.801 52.0446 22.1113 53.043 22.1113C53.8275 22.1113 54.4693 22.6602 54.4693 23.4906C54.4693 23.6736 54.4551 23.7862 54.4265 23.8988H52.2443C52.3156 24.3492 52.6722 24.5885 53.1571 24.5885C53.528 24.5885 53.8418 24.4618 54.0129 24.321L54.2269 24.8699ZM52.2301 23.4062H53.7134C53.7134 23.0403 53.4709 22.7588 53.0288 22.7588C52.5581 22.7588 52.3014 23.0121 52.2301 23.4062Z" fill="white"/>
<path d="M44.1859 29.9225C44.1859 31.344 43.3016 31.921 42.3175 31.921C41.1479 31.921 40.3207 31.2455 40.3207 29.8802V27.2061H41.1479V29.6973C41.1479 30.5699 41.5045 31.1469 42.3175 31.1469C43.0306 31.1469 43.3586 30.6543 43.3586 29.7536V27.2061H44.1716V29.9225H44.1859Z" fill="white"/>
<path d="M45.1272 28.8527H45.8974V29.1483C46.0828 28.9512 46.3966 28.7964 46.7674 28.7964C47.5091 28.7964 48.0083 29.1483 48.0083 30.0772V31.8224H47.2381V30.2038C47.2381 29.7253 46.9956 29.5001 46.5535 29.5001C46.2967 29.5001 46.0828 29.6127 45.8974 29.7816V31.8083H45.1272V28.8527Z" fill="white"/>
<path d="M49.2206 27.3467C49.4488 27.3467 49.6627 27.5156 49.6627 27.7971C49.6627 28.1067 49.4345 28.2756 49.2206 28.2756C48.9639 28.2756 48.7357 28.1067 48.7357 27.7971C48.7357 27.5156 48.9639 27.3467 49.2206 27.3467ZM48.8212 28.8527H49.5914V31.8365H48.8212V28.8527Z" fill="white"/>
<path d="M52.0446 31.8509H51.4741L50.0906 28.853H51.0035L51.5597 30.1338C51.6453 30.3168 51.7308 30.5842 51.7879 30.8094C51.845 30.5842 51.9305 30.3168 52.0161 30.1197L52.5438 28.853H53.3568L52.0446 31.8509Z" fill="white"/>
<path d="M56.2379 31.5408C55.9384 31.7942 55.5105 31.9068 55.0826 31.9068C54.1128 31.9068 53.4567 31.2875 53.4567 30.3445C53.4567 29.4719 54.0557 28.7822 55.0541 28.7822C55.8385 28.7822 56.4804 29.3311 56.4804 30.1615C56.4804 30.3445 56.4661 30.4571 56.4376 30.5697H54.2554C54.3267 31.0201 54.6833 31.2594 55.1682 31.2594C55.539 31.2594 55.8528 31.1327 56.024 30.9919L56.2379 31.5408ZM54.2411 30.063H55.7244C55.7244 29.6971 55.482 29.4156 55.0398 29.4156C54.5692 29.4156 54.3124 29.683 54.2411 30.063Z" fill="white"/>
<path d="M57.1079 28.8528H57.8781V29.1483C58.0207 28.9513 58.2061 28.8105 58.5627 28.8105C58.8052 28.8105 58.9335 28.8528 59.0334 28.9231L58.7624 29.6409C58.6198 29.5565 58.5342 29.5284 58.3773 29.5284C58.1063 29.5284 57.9637 29.6691 57.8781 29.8521V31.8507H57.1079V28.8528Z" fill="white"/>
<path d="M59.3471 29.6972C59.3471 29.1201 59.8321 28.7964 60.4596 28.7964C61.0444 28.7964 61.4152 29.0075 61.6006 29.1764L61.3154 29.7253C61.13 29.5846 60.8162 29.4438 60.5024 29.4438C60.2742 29.4438 60.1316 29.5705 60.1316 29.6972C60.1316 30.1898 61.7575 29.9224 61.7575 30.9779C61.7575 31.5691 61.2726 31.935 60.5309 31.935C59.9747 31.935 59.4042 31.6395 59.2758 31.4283L59.6466 30.9357C59.8321 31.1328 60.2885 31.3017 60.588 31.3017C60.8162 31.3017 60.9873 31.2031 60.9873 31.0202C60.9731 30.5135 59.3471 30.7809 59.3471 29.6972Z" fill="white"/>
<path d="M62.8415 27.3467C63.0697 27.3467 63.2836 27.5156 63.2836 27.7971C63.2836 28.1067 63.0554 28.2756 62.8415 28.2756C62.5848 28.2756 62.3566 28.1067 62.3566 27.7971C62.3566 27.5156 62.5705 27.3467 62.8415 27.3467ZM62.4279 28.8527H63.1981V31.8365H62.4279V28.8527Z" fill="white"/>
<path d="M64.0253 28.0225H64.7955V28.8529H65.7653V29.5707H64.7955V30.6544C64.7955 30.9781 64.9096 31.1892 65.152 31.1892C65.366 31.1892 65.5086 31.0907 65.6084 31.0203L65.8367 31.6115C65.6512 31.7522 65.3375 31.907 64.9381 31.907C64.2535 31.907 63.9968 31.4707 63.9968 30.7107V28.0225H64.0253Z" fill="white"/>
<path d="M68.2899 31.8368C67.8477 32.9065 67.5625 33.1598 67.1203 33.1598C66.8493 33.1598 66.6496 33.0472 66.4642 32.9346L66.7067 32.3576C66.7923 32.3998 66.9064 32.4702 67.0205 32.4702C67.2202 32.4702 67.3628 32.3154 67.4769 32.0057L67.5482 31.8509L66.1505 28.8671H67.0775L67.7764 30.4998C67.8335 30.6405 67.8762 30.7812 67.919 30.9361C67.9476 30.7953 67.9761 30.6546 68.0331 30.4998L68.6036 28.853H69.4879L68.2899 31.8368Z" fill="white"/>
<path d="M42.2177 10.697L40.5632 8.64209V10.697H40.2637V8.0791H40.5204L42.1749 10.134V8.0791H42.4744V10.697H42.2177Z" fill="white"/>
<path d="M43.1447 9.1348C43.3016 9.03628 43.5013 8.97998 43.7152 8.97998C44.2002 8.97998 44.3713 9.23332 44.3713 9.66963V10.6971H44.0861V10.486C43.9862 10.6126 43.8151 10.7252 43.5441 10.7252C43.2303 10.7252 43.0164 10.5282 43.0164 10.2045C43.0164 9.86668 43.2873 9.66963 43.6582 9.66963C43.7865 9.66963 43.972 9.69778 44.0861 9.78223C44.0861 9.47259 44.0433 9.2474 43.701 9.2474C43.487 9.2474 43.3729 9.3037 43.2303 9.37407L43.1447 9.1348ZM44.0718 10.2326V10.0215C43.972 9.95112 43.8436 9.9089 43.6867 9.9089C43.5013 9.9089 43.3301 9.99335 43.3301 10.1904C43.3301 10.3452 43.4442 10.4578 43.6297 10.4578C43.8579 10.4578 43.9862 10.3311 44.0718 10.2326Z" fill="white"/>
<path d="M44.8563 8.55762H45.1558V9.02208H45.7833V9.30357H45.1558V10.0354C45.1558 10.3029 45.2414 10.4577 45.4553 10.4577C45.5694 10.4577 45.6692 10.4155 45.7263 10.3592L45.8261 10.5844C45.7405 10.6547 45.5837 10.7251 45.3982 10.7251C45.0132 10.7251 44.8705 10.4858 44.8705 10.0636V8.55762H44.8563Z" fill="white"/>
<path d="M46.3966 8.20557C46.4965 8.20557 46.5821 8.27594 46.5821 8.38854C46.5821 8.51521 46.4965 8.58558 46.3966 8.58558C46.2968 8.58558 46.197 8.51521 46.197 8.38854C46.2112 8.27594 46.2968 8.20557 46.3966 8.20557ZM46.2398 9.02189H46.5393V10.6968H46.2398V9.02189Z" fill="white"/>
<path d="M47.9228 8.97998C48.4647 8.97998 48.8356 9.34592 48.8356 9.8526C48.8356 10.3593 48.479 10.7252 47.9228 10.7252C47.3808 10.7252 47.0099 10.3593 47.0099 9.8526C47.0242 9.34592 47.3808 8.97998 47.9228 8.97998ZM47.9228 10.4578C48.2651 10.4578 48.5075 10.2185 48.5075 9.86668C48.5075 9.51481 48.2651 9.27555 47.9228 9.27555C47.5947 9.27555 47.338 9.51481 47.338 9.86668C47.338 10.2045 47.5805 10.4578 47.9228 10.4578Z" fill="white"/>
<path d="M49.2777 9.0218H49.5772V9.23292C49.6913 9.10625 49.9053 8.99365 50.1335 8.99365C50.5756 8.99365 50.8466 9.20477 50.8466 9.72553V10.6967H50.5471V9.78183C50.5471 9.42996 50.3902 9.26107 50.0622 9.26107C49.8767 9.26107 49.6913 9.35959 49.5772 9.47219V10.6967H49.2777V9.0218Z" fill="white"/>
<path d="M51.3743 9.1348C51.5312 9.03628 51.7309 8.97998 51.9448 8.97998C52.4298 8.97998 52.6009 9.23332 52.6009 9.66963V10.6971H52.3157V10.486C52.2158 10.6126 52.0447 10.7252 51.7737 10.7252C51.4599 10.7252 51.246 10.5282 51.246 10.2045C51.246 9.86668 51.517 9.66963 51.8878 9.66963C52.0162 9.66963 52.2016 9.69778 52.3157 9.78223C52.3157 9.47259 52.2729 9.2474 51.9306 9.2474C51.7166 9.2474 51.6025 9.3037 51.4599 9.37407L51.3743 9.1348ZM52.3014 10.2326V10.0215C52.2016 9.95112 52.0732 9.9089 51.9163 9.9089C51.7309 9.9089 51.5598 9.99335 51.5598 10.1904C51.5598 10.3452 51.6739 10.4578 51.8593 10.4578C52.0875 10.4578 52.2158 10.3311 52.3014 10.2326Z" fill="white"/>
<path d="M53.1001 8.0791H53.3996V10.1058C53.3996 10.331 53.4567 10.4436 53.5993 10.4436C53.6849 10.4436 53.7562 10.4014 53.8132 10.3733L53.8845 10.5984C53.799 10.6688 53.6563 10.7251 53.4852 10.7251C53.2285 10.7251 53.1001 10.5703 53.1001 10.2466V8.0791Z" fill="white"/>
<path d="M55.1682 10.6969V8.07902C55.3108 8.07902 55.7958 8.06494 55.8813 8.06494C56.6087 8.06494 56.8227 8.41681 56.8227 8.83904C56.8227 9.24721 56.5374 9.50055 56.2522 9.57092L57.1365 10.6687H56.7371L55.9241 9.62722H55.4963V10.6969H55.1682ZM55.4963 8.38866V9.3598H55.8813C56.1809 9.3598 56.4804 9.17683 56.4804 8.86719C56.4804 8.59978 56.3235 8.38866 55.8671 8.38866C55.7815 8.37458 55.6246 8.37458 55.4963 8.38866Z" fill="white"/>
<path d="M58.848 10.5137C58.6768 10.6685 58.4343 10.7389 58.2061 10.7389C57.6499 10.7389 57.2933 10.387 57.2933 9.86628C57.2933 9.37367 57.6071 8.99365 58.1634 8.99365C58.6055 8.99365 58.9478 9.30329 58.9478 9.76775C58.9478 9.8522 58.9335 9.92258 58.9335 9.9648H57.6214C57.6499 10.2885 57.8781 10.4715 58.2204 10.4715C58.4344 10.4715 58.634 10.4011 58.7481 10.3026L58.848 10.5137ZM57.6071 9.71146H58.634C58.6198 9.42996 58.4344 9.26107 58.1491 9.26107C57.8496 9.26107 57.6499 9.44404 57.6071 9.71146Z" fill="white"/>
<path d="M59.3187 9.45851C59.3187 9.16295 59.5611 8.97998 59.9034 8.97998C60.1887 8.97998 60.3884 9.0785 60.4882 9.17702L60.3456 9.40222C60.2457 9.31777 60.1031 9.23332 59.9177 9.23332C59.7466 9.23332 59.6467 9.33184 59.6467 9.44444C59.6467 9.7963 60.5595 9.62741 60.5595 10.2185C60.5595 10.5704 60.2457 10.7252 59.9034 10.7252C59.6324 10.7252 59.3615 10.5845 59.2759 10.4578L59.447 10.2467C59.5469 10.3593 59.7751 10.4578 59.932 10.4578C60.0889 10.4578 60.2315 10.3734 60.2315 10.2326C60.2315 9.89483 59.3187 10.0637 59.3187 9.45851Z" fill="white"/>
<path d="M62.4279 10.5137C62.2568 10.6685 62.0143 10.7389 61.7861 10.7389C61.2299 10.7389 60.8733 10.387 60.8733 9.86628C60.8733 9.37367 61.1871 8.99365 61.7433 8.99365C62.1855 8.99365 62.5278 9.30329 62.5278 9.76775C62.5278 9.8522 62.5135 9.92258 62.5135 9.9648H61.2013C61.2299 10.2885 61.4581 10.4715 61.8004 10.4715C62.0143 10.4715 62.214 10.4011 62.3281 10.3026L62.4279 10.5137ZM61.2013 9.71146H62.2282C62.214 9.42996 62.0286 9.26107 61.7433 9.26107C61.4295 9.26107 61.2441 9.44404 61.2013 9.71146Z" fill="white"/>
<path d="M62.9842 9.1348C63.1411 9.03628 63.3408 8.97998 63.5547 8.97998C64.0396 8.97998 64.2108 9.23332 64.2108 9.66963V10.6971H63.9255V10.486C63.8257 10.6126 63.6545 10.7252 63.3836 10.7252C63.0698 10.7252 62.8558 10.5282 62.8558 10.2045C62.8558 9.86668 63.1268 9.66963 63.4977 9.66963C63.626 9.66963 63.8114 9.69778 63.9255 9.78223C63.9255 9.47259 63.8827 9.2474 63.5404 9.2474C63.3265 9.2474 63.2124 9.3037 63.0698 9.37407L62.9842 9.1348ZM63.9113 10.2326V10.0215C63.8114 9.95112 63.6831 9.9089 63.5262 9.9089C63.3408 9.9089 63.1696 9.99335 63.1696 10.1904C63.1696 10.3452 63.2837 10.4578 63.4691 10.4578C63.6973 10.4578 63.8257 10.3311 63.9113 10.2326Z" fill="white"/>
<path d="M64.7242 9.0218H65.0238V9.21885C65.1093 9.09217 65.2377 8.99365 65.4516 8.99365C65.5943 8.99365 65.6656 9.0218 65.7226 9.06403L65.6228 9.34552C65.5372 9.30329 65.4944 9.28922 65.3946 9.28922C65.1949 9.28922 65.1093 9.40181 65.038 9.52849V10.6967H64.7385V9.0218H64.7242Z" fill="white"/>
<path d="M67.4341 10.4574C67.2915 10.6404 67.0348 10.7389 66.7781 10.7389C66.2361 10.7389 65.8652 10.387 65.8652 9.86628C65.8652 9.37367 66.2218 8.99365 66.721 8.99365C66.992 8.99365 67.2345 9.06403 67.3913 9.21885L67.2487 9.45811C67.1061 9.33144 66.9349 9.28922 66.7638 9.28922C66.4643 9.28922 66.179 9.52849 66.179 9.88035C66.179 10.2463 66.45 10.4715 66.7923 10.4715C66.992 10.4715 67.1631 10.387 67.2772 10.2604L67.4341 10.4574Z" fill="white"/>
<path d="M67.8192 8.0791H68.1187V9.20507C68.2471 9.0784 68.461 8.97988 68.675 8.97988C69.1171 8.97988 69.3881 9.20507 69.3881 9.72583V10.697H69.0886V9.78213C69.0886 9.44434 68.9317 9.27544 68.6179 9.27544C68.4325 9.27544 68.2471 9.37396 68.133 9.48656V10.697H67.8335V8.0791H67.8192Z" fill="white"/>
</g>
<defs>
<clipPath id="clip0_287_40">
<rect width="69.4737" height="40" fill="white"/>
</clipPath>
</defs>
</svg>
