<?xml version="1.0" encoding="UTF-8"?> <svg xmlns="http://www.w3.org/2000/svg" id="Слой_1" data-name="Слой 1" viewBox="0 0 512 268"> <defs> <style>.cls-1,.cls-2{fill:#fff;}.cls-1{fill-rule:evenodd;}</style> </defs> <path class="cls-1" d="M112.59,89.61a10.16,10.16,0,1,1-10.16,10.16,10.16,10.16,0,0,1,10.16-10.16Zm53.19,66.19a20.41,20.41,0,0,0,5.95-10.92,14.08,14.08,0,0,0-.66-8.09h-13.4c.89,3.87.55,9.09-4,10.91-11,4.39-28-1.88-41.2-16-15.38-16.54-19.63-37.59-9.5-47,11.35-10.55,34.19-2.23,42.47,3.76-11.69-9.28-33.76-15.64-46.13-4.13-10.49,9.75-8.07,29.93,4.72,48v21.77a5.39,5.39,0,0,0,5.37,5.37h11.81V149.9c16.39,12.17,34.71,15.1,44.6,5.9Zm-39.12-17.69V93.24h11.8a5.39,5.39,0,0,1,5.37,5.38v14.91h14.11c3.83,0,5.79,1.41,7.3,4.82l3.92,8.83H143.83v17.46a41.21,41.21,0,0,1-17.17-5.83v-.7ZM104,113.53h17.18v21.64a65,65,0,0,1-8.74-7.86,65.67,65.67,0,0,1-6.19-7.75C104.45,116.92,104,116.29,104,113.53Z"></path> <path class="cls-1" d="M153.67,101.5C141.9,86.22,119.25,79.09,103,88.44c15.75-14.55,42.73-1.81,51.3,8.28a29.14,29.14,0,0,1,4.28,5.43l2.18-5.1h4l-4,9.45h-4v-.06A25.31,25.31,0,0,0,153.67,101.5Z"></path> <path class="cls-1" d="M196.8,127.59a63.81,63.81,0,0,1-63.74,63.73h-1.4a63.81,63.81,0,0,1-63.74-63.73V54.25H196.8v73.34Zm2.29-88.91H186.44L178,41v3H150.47V40.82L142,37.56h-6.84l-1.43-.78a1.34,1.34,0,0,0,.09-.45,1.43,1.43,0,0,0-.91-1.33V30h-1.06v5a1.44,1.44,0,0,0-.9,1.33,1.56,1.56,0,0,0,.08.44l-1.44.79h-7.17l-8,3.38V44H86.65V41l-8.4-2.32H65.59L57.19,41v86.59a74.56,74.56,0,0,0,74.47,74.47h1.4a74.56,74.56,0,0,0,74.47-74.47v-82h0V41Z"></path> <path class="cls-2" d="M228.19,78V60.67h3.49v6.81h6.86V60.67H242V78h-3.49V70.41h-6.86V78Z"></path> <path class="cls-2" d="M245.74,63.74V60.67h3.32v3.07Zm0,14.25V65.44h3.32V78Z"></path> <path class="cls-2" d="M252.38,78.81l3.79.47a1.33,1.33,0,0,0,.44.91,2.56,2.56,0,0,0,1.49.35,3.85,3.85,0,0,0,1.95-.39,1.59,1.59,0,0,0,.66-.84,5,5,0,0,0,.16-1.52V76a4.52,4.52,0,0,1-3.76,2,4.65,4.65,0,0,1-4-2.14,7.3,7.3,0,0,1-1.16-4.21,6.93,6.93,0,0,1,1.52-4.82,4.9,4.9,0,0,1,3.78-1.66,4.6,4.6,0,0,1,3.84,2V65.44h3.11V76.7a11.33,11.33,0,0,1-.37,3.32,4.14,4.14,0,0,1-1,1.73,4.68,4.68,0,0,1-1.77,1,9.44,9.44,0,0,1-2.79.35c-2.13,0-3.64-.36-4.52-1.09a3.45,3.45,0,0,1-1.34-2.77C252.37,79.11,252.37,79,252.38,78.81Zm3-7.36a4.57,4.57,0,0,0,.77,2.93,2.39,2.39,0,0,0,1.91.93,2.64,2.64,0,0,0,2.06-1,4.17,4.17,0,0,0,.83-2.81,4.38,4.38,0,0,0-.8-2.9,2.55,2.55,0,0,0-2-.94,2.47,2.47,0,0,0-2,.92A4.4,4.4,0,0,0,255.35,71.45Z"></path> <path class="cls-2" d="M271,60.67V67a5,5,0,0,1,5.9-1.45,3.41,3.41,0,0,1,1.39,1.09,3.9,3.9,0,0,1,.64,1.46,13.58,13.58,0,0,1,.17,2.5V78h-3.32V71.36a9.66,9.66,0,0,0-.19-2.51,1.62,1.62,0,0,0-.67-.84,2.1,2.1,0,0,0-1.2-.31,2.7,2.7,0,0,0-1.47.4,2.28,2.28,0,0,0-.95,1.21,7.27,7.27,0,0,0-.3,2.39V78h-3.33V60.67Z"></path> <path class="cls-2" d="M290,74l3.31.56a5.48,5.48,0,0,1-2,2.77,6,6,0,0,1-3.45,1A5.59,5.59,0,0,1,283,76.13a7.15,7.15,0,0,1-1.24-4.32,6.93,6.93,0,0,1,1.63-4.89,5.38,5.38,0,0,1,4.12-1.76A5.55,5.55,0,0,1,291.89,67c1.08,1.23,1.59,3.12,1.55,5.66h-8.32a3.35,3.35,0,0,0,.8,2.3,2.5,2.5,0,0,0,1.92.82,2,2,0,0,0,1.31-.43A2.63,2.63,0,0,0,290,74Zm.19-3.35a3.19,3.19,0,0,0-.74-2.19,2.4,2.4,0,0,0-3.52,0,3,3,0,0,0-.7,2.15Z"></path> <path class="cls-2" d="M299.53,78h-3.32V65.44h3.09v1.78a5.43,5.43,0,0,1,1.42-1.66,2.6,2.6,0,0,1,1.44-.4,4.18,4.18,0,0,1,2.18.62l-1,2.9a2.87,2.87,0,0,0-1.56-.55,1.85,1.85,0,0,0-1.19.39,2.66,2.66,0,0,0-.76,1.39,20,20,0,0,0-.28,4.2Z"></path> <path class="cls-2" d="M228.07,108V90.67h3.49V108Z"></path> <path class="cls-2" d="M239,108V93.6h-5.14V90.67h13.77V93.6h-5.13V108Z"></path> <path class="cls-2" d="M256.25,102.35l3.41-.33a4.18,4.18,0,0,0,1.24,2.52,3.81,3.81,0,0,0,2.54.8,3.92,3.92,0,0,0,2.54-.71,2.15,2.15,0,0,0,.86-1.68,1.57,1.57,0,0,0-.36-1,2.83,2.83,0,0,0-1.26-.75c-.41-.14-1.34-.4-2.8-.76a9.48,9.48,0,0,1-3.95-1.71,4.52,4.52,0,0,1-1.59-3.49,4.45,4.45,0,0,1,.75-2.47A4.68,4.68,0,0,1,259.79,91a8.71,8.71,0,0,1,3.41-.6,7.32,7.32,0,0,1,4.91,1.43,5,5,0,0,1,1.73,3.82l-3.5.15a3,3,0,0,0-1-1.92,3.51,3.51,0,0,0-2.21-.58,4,4,0,0,0-2.39.62,1.28,1.28,0,0,0-.56,1.08,1.34,1.34,0,0,0,.52,1A9.42,9.42,0,0,0,264,97.18a16.76,16.76,0,0,1,3.77,1.24,4.88,4.88,0,0,1,1.92,1.76,5.45,5.45,0,0,1-.14,5.55,4.91,4.91,0,0,1-2.34,1.93,9.83,9.83,0,0,1-3.77.63,7.49,7.49,0,0,1-5-1.51A6.61,6.61,0,0,1,256.25,102.35Z"></path> <path class="cls-2" d="M284.33,99.15l-3.27.59a2.39,2.39,0,0,0-.75-1.48,2.28,2.28,0,0,0-1.52-.49,2.47,2.47,0,0,0-2,.85,4.41,4.41,0,0,0-.74,2.87,5.05,5.05,0,0,0,.75,3.15,2.47,2.47,0,0,0,2,.93,2.25,2.25,0,0,0,1.55-.54,3.3,3.3,0,0,0,.85-1.85l3.26.55a5.77,5.77,0,0,1-1.95,3.39,6,6,0,0,1-3.87,1.15,5.76,5.76,0,0,1-4.39-1.74,7.92,7.92,0,0,1,0-9.64,5.82,5.82,0,0,1,4.44-1.73,6.05,6.05,0,0,1,3.65,1A5.46,5.46,0,0,1,284.33,99.15Z"></path> <path class="cls-2" d="M290.36,90.67V97a4.89,4.89,0,0,1,3.84-1.87,5,5,0,0,1,2.07.42,3.36,3.36,0,0,1,1.38,1.09,3.9,3.9,0,0,1,.64,1.46,12.74,12.74,0,0,1,.17,2.5V108h-3.32v-6.63a9.66,9.66,0,0,0-.19-2.51,1.61,1.61,0,0,0-.66-.84,2.14,2.14,0,0,0-1.2-.31,2.74,2.74,0,0,0-1.48.4,2.33,2.33,0,0,0-.95,1.21,7.27,7.27,0,0,0-.3,2.39V108H287V90.67Z"></path> <path class="cls-2" d="M301.22,101.54a6.86,6.86,0,0,1,.81-3.21A5.65,5.65,0,0,1,304.34,96a6.91,6.91,0,0,1,3.34-.81A6.28,6.28,0,0,1,312.35,97a6.42,6.42,0,0,1,1.82,4.68,6.49,6.49,0,0,1-1.84,4.72,6.2,6.2,0,0,1-4.62,1.87,7.31,7.31,0,0,1-3.3-.78,5.41,5.41,0,0,1-2.38-2.28A7.68,7.68,0,0,1,301.22,101.54Zm3.4.17a4.15,4.15,0,0,0,.89,2.86,2.82,2.82,0,0,0,2.18,1,2.8,2.8,0,0,0,2.18-1,4.19,4.19,0,0,0,.88-2.88,4.15,4.15,0,0,0-.88-2.84,2.79,2.79,0,0,0-2.18-1,2.82,2.82,0,0,0-2.18,1A4.19,4.19,0,0,0,304.62,101.71Z"></path> <path class="cls-2" d="M316.2,101.54a6.86,6.86,0,0,1,.81-3.21A5.65,5.65,0,0,1,319.32,96a6.91,6.91,0,0,1,3.34-.81A6.28,6.28,0,0,1,327.33,97a6.42,6.42,0,0,1,1.82,4.68,6.49,6.49,0,0,1-1.84,4.72,6.22,6.22,0,0,1-4.63,1.87,7.3,7.3,0,0,1-3.29-.78,5.41,5.41,0,0,1-2.38-2.28A7.68,7.68,0,0,1,316.2,101.54Zm3.4.17a4.15,4.15,0,0,0,.89,2.86,2.82,2.82,0,0,0,2.18,1,2.8,2.8,0,0,0,2.18-1,4.19,4.19,0,0,0,.88-2.88,4.15,4.15,0,0,0-.88-2.84,2.79,2.79,0,0,0-2.18-1,2.82,2.82,0,0,0-2.18,1A4.19,4.19,0,0,0,319.6,101.71Z"></path> <path class="cls-2" d="M332,108V90.67h3.31V108Z"></path> <path class="cls-2" d="M230.4,135v-8.84h-3.3V125H235v1.18h-3.31V135Z"></path> <path class="cls-2" d="M234.67,131.38a3.74,3.74,0,0,1,1.12-3,3.35,3.35,0,0,1,2.28-.81,3.28,3.28,0,0,1,2.45,1,3.77,3.77,0,0,1,.95,2.72,4.81,4.81,0,0,1-.42,2.2,3,3,0,0,1-1.23,1.25,3.61,3.61,0,0,1-1.75.44,3.21,3.21,0,0,1-2.46-1A3.88,3.88,0,0,1,234.67,131.38Zm1.26,0a3.09,3.09,0,0,0,.61,2.09,2,2,0,0,0,1.53.69,1.91,1.91,0,0,0,1.52-.7,3.12,3.12,0,0,0,.61-2.12,3,3,0,0,0-.61-2,1.92,1.92,0,0,0-1.52-.7,2,2,0,0,0-1.53.69A3.07,3.07,0,0,0,235.93,131.38Z"></path> <path class="cls-2" d="M243,135v-7.26h1.1v1a2.43,2.43,0,0,1,.91-.86,2.48,2.48,0,0,1,1.29-.33,2.39,2.39,0,0,1,1.32.34,1.77,1.77,0,0,1,.73.94,2.6,2.6,0,0,1,2.24-1.28,2.21,2.21,0,0,1,1.66.6,2.54,2.54,0,0,1,.58,1.84v5h-1.22v-4.58a3.36,3.36,0,0,0-.12-1.06,1.05,1.05,0,0,0-.44-.52,1.33,1.33,0,0,0-.73-.2,1.7,1.7,0,0,0-1.27.51,2.23,2.23,0,0,0-.51,1.63V135h-1.23v-4.72a2.06,2.06,0,0,0-.3-1.23,1.15,1.15,0,0,0-1-.41,1.84,1.84,0,0,0-1,.27,1.65,1.65,0,0,0-.64.8,4.61,4.61,0,0,0-.19,1.52V135Z"></path> <path class="cls-2" d="M254.26,132.84l1.22-.19a1.71,1.71,0,0,0,.57,1.12,2,2,0,0,0,1.31.39,1.93,1.93,0,0,0,1.26-.35A1,1,0,0,0,259,133a.75.75,0,0,0-.36-.65,5.38,5.38,0,0,0-1.26-.42,11.55,11.55,0,0,1-1.88-.59,1.85,1.85,0,0,1-.79-.69,1.91,1.91,0,0,1-.05-1.87,1.93,1.93,0,0,1,.61-.69,2.58,2.58,0,0,1,.78-.36,3.62,3.62,0,0,1,1.06-.15,4.28,4.28,0,0,1,1.5.25,2.07,2.07,0,0,1,1,.67,2.68,2.68,0,0,1,.42,1.12l-1.2.17a1.35,1.35,0,0,0-.48-.88,1.73,1.73,0,0,0-1.11-.31,2,2,0,0,0-1.21.28.8.8,0,0,0-.36.65.66.66,0,0,0,.15.43,1.07,1.07,0,0,0,.47.33c.12.05.49.15,1.09.32a14.71,14.71,0,0,1,1.82.57,1.84,1.84,0,0,1,.81.64,1.79,1.79,0,0,1,.29,1.06,2,2,0,0,1-.36,1.15,2.21,2.21,0,0,1-1,.84,3.73,3.73,0,0,1-1.53.3,3.37,3.37,0,0,1-2.16-.59A2.76,2.76,0,0,1,254.26,132.84Z"></path> <path class="cls-2" d="M261.81,135V125H263v5.71l2.91-2.95h1.6l-2.78,2.69,3.06,4.57h-1.52l-2.4-3.71-.87.83V135Z"></path> <path class="cls-2" d="M227.4,149.79l1.25-.11a2.84,2.84,0,0,0,.41,1.23,2.34,2.34,0,0,0,1,.78,3.81,3.81,0,0,0,1.54.3,3.69,3.69,0,0,0,1.34-.23,1.78,1.78,0,0,0,.86-.62,1.41,1.41,0,0,0,.29-.85,1.28,1.28,0,0,0-.28-.83,2,2,0,0,0-.9-.59c-.27-.1-.86-.27-1.78-.49a9.6,9.6,0,0,1-1.94-.62,2.68,2.68,0,0,1-1.07-.94,2.3,2.3,0,0,1-.35-1.24,2.52,2.52,0,0,1,.43-1.42,2.64,2.64,0,0,1,1.26-1,4.71,4.71,0,0,1,1.84-.34,5,5,0,0,1,2,.35,2.84,2.84,0,0,1,1.31,1.06,3.08,3.08,0,0,1,.5,1.58l-1.28.1a2,2,0,0,0-.69-1.44,2.72,2.72,0,0,0-1.75-.49,2.83,2.83,0,0,0-1.75.44,1.33,1.33,0,0,0-.55,1.07,1.15,1.15,0,0,0,.39.89,5.22,5.22,0,0,0,2,.71,13,13,0,0,1,2.22.64,3.09,3.09,0,0,1,1.29,1,2.5,2.5,0,0,1,.42,1.43,2.81,2.81,0,0,1-.46,1.51,3.13,3.13,0,0,1-1.32,1.1,4.59,4.59,0,0,1-1.93.39,5.64,5.64,0,0,1-2.28-.4,3.18,3.18,0,0,1-1.44-1.19A3.38,3.38,0,0,1,227.4,149.79Z"></path> <path class="cls-2" d="M239.81,151.91,240,153a4.17,4.17,0,0,1-.93.11,2.13,2.13,0,0,1-1-.21,1.17,1.17,0,0,1-.52-.56,4.39,4.39,0,0,1-.15-1.45v-4.17h-.9v-1h.9V144l1.22-.74v2.54h1.24v1h-1.24V151a1.94,1.94,0,0,0,.07.68.49.49,0,0,0,.21.24.82.82,0,0,0,.42.09A4.31,4.31,0,0,0,239.81,151.91Z"></path> <path class="cls-2" d="M246,152.11a4.46,4.46,0,0,1-1.31.82,3.81,3.81,0,0,1-1.36.24,2.64,2.64,0,0,1-1.84-.58,1.93,1.93,0,0,1-.64-1.5,2,2,0,0,1,.24-1,2.09,2.09,0,0,1,.64-.71,2.83,2.83,0,0,1,.88-.4,9.5,9.5,0,0,1,1.1-.19,11,11,0,0,0,2.19-.42c0-.17,0-.28,0-.32a1.36,1.36,0,0,0-.35-1.06,2.05,2.05,0,0,0-1.4-.42,2.1,2.1,0,0,0-1.28.31,1.87,1.87,0,0,0-.62,1.07l-1.2-.16a3,3,0,0,1,.54-1.25,2.31,2.31,0,0,1,1.09-.73,4.84,4.84,0,0,1,1.65-.26,4.51,4.51,0,0,1,1.51.22,2.05,2.05,0,0,1,.85.55,1.92,1.92,0,0,1,.38.84,6.82,6.82,0,0,1,.07,1.14V150a18.82,18.82,0,0,0,.07,2.17,3.12,3.12,0,0,0,.31.87h-1.28A2.71,2.71,0,0,1,246,152.11Zm-.1-2.75a8.78,8.78,0,0,1-2,.47,4.1,4.1,0,0,0-1.07.25,1,1,0,0,0-.66,1,1.07,1.07,0,0,0,.37.82,1.61,1.61,0,0,0,1.09.33,2.62,2.62,0,0,0,1.27-.31,1.9,1.9,0,0,0,.81-.85,3,3,0,0,0,.2-1.23Z"></path> <path class="cls-2" d="M251.69,151.91l.17,1.08a4,4,0,0,1-.93.11,2.15,2.15,0,0,1-1-.21,1.2,1.2,0,0,1-.51-.56,4,4,0,0,1-.16-1.45v-4.17h-.9v-1h.9V144l1.23-.74v2.54h1.24v1h-1.24V151a2.34,2.34,0,0,0,.06.68.61.61,0,0,0,.21.24.83.83,0,0,0,.43.09A4.66,4.66,0,0,0,251.69,151.91Z"></path> <path class="cls-2" d="M257.83,150.67l1.27.16a3.08,3.08,0,0,1-1.12,1.73,3.78,3.78,0,0,1-4.6-.37,3.83,3.83,0,0,1-.93-2.75,4,4,0,0,1,.94-2.84,3.18,3.18,0,0,1,2.45-1,3.09,3.09,0,0,1,2.38,1,4,4,0,0,1,.92,2.78c0,.08,0,.19,0,.33h-5.41a2.72,2.72,0,0,0,.68,1.83,2,2,0,0,0,1.51.64,1.88,1.88,0,0,0,1.16-.36A2.32,2.32,0,0,0,257.83,150.67Zm-4-2h4a2.44,2.44,0,0,0-.46-1.37,1.88,1.88,0,0,0-1.53-.71,1.93,1.93,0,0,0-1.42.56A2.24,2.24,0,0,0,253.79,148.68Z"></path> <path class="cls-2" d="M234.43,161h1.32v5.79a6.87,6.87,0,0,1-.34,2.4,3,3,0,0,1-1.23,1.44,4.42,4.42,0,0,1-2.35.56,4.75,4.75,0,0,1-2.3-.49,2.77,2.77,0,0,1-1.28-1.4,6.79,6.79,0,0,1-.38-2.51V161h1.33v5.78a5.66,5.66,0,0,0,.24,1.92,1.86,1.86,0,0,0,.83,1,3,3,0,0,0,1.45.33,2.76,2.76,0,0,0,2.08-.66,3.78,3.78,0,0,0,.63-2.55Z"></path> <path class="cls-2" d="M237.89,171v-7.26H239v1a2.6,2.6,0,0,1,2.31-1.2,2.92,2.92,0,0,1,1.2.24,1.87,1.87,0,0,1,.83.62,2.34,2.34,0,0,1,.38.91,6.49,6.49,0,0,1,.07,1.19V171h-1.23v-4.42a3.47,3.47,0,0,0-.14-1.12,1.24,1.24,0,0,0-.51-.6,1.62,1.62,0,0,0-.86-.22,2,2,0,0,0-1.36.5,2.45,2.45,0,0,0-.57,1.89v4Z"></path> <path class="cls-2" d="M245.71,162.4V161H247v1.41Zm0,8.61v-7.26H247V171Z"></path> <path class="cls-2" d="M250.92,171l-2.76-7.26h1.3L251,168.1c.17.47.32,1,.46,1.46.11-.38.26-.84.46-1.38l1.61-4.43h1.27L252.07,171Z"></path> <path class="cls-2" d="M260.73,168.67l1.27.16a3.12,3.12,0,0,1-1.11,1.73,3.8,3.8,0,0,1-4.61-.37,3.83,3.83,0,0,1-.93-2.75,4,4,0,0,1,.94-2.84,3.19,3.19,0,0,1,2.45-1,3.09,3.09,0,0,1,2.38,1,3.9,3.9,0,0,1,.92,2.78v.33h-5.42a2.77,2.77,0,0,0,.68,1.83,2,2,0,0,0,1.52.64,1.86,1.86,0,0,0,1.15-.36A2.32,2.32,0,0,0,260.73,168.67Zm-4-2h4.05a2.44,2.44,0,0,0-.46-1.37,1.87,1.87,0,0,0-1.53-.71,2,2,0,0,0-1.42.56A2.24,2.24,0,0,0,256.69,166.68Z"></path> <path class="cls-2" d="M263.62,171v-7.26h1.11v1.1a2.88,2.88,0,0,1,.78-1,1.4,1.4,0,0,1,.79-.25,2.42,2.42,0,0,1,1.26.4l-.42,1.14a1.72,1.72,0,0,0-.9-.26,1.21,1.21,0,0,0-.73.24,1.29,1.29,0,0,0-.45.67,4.73,4.73,0,0,0-.21,1.44V171Z"></path> <path class="cls-2" d="M268,168.84l1.22-.19a1.71,1.71,0,0,0,.57,1.12,2,2,0,0,0,1.31.39,2,2,0,0,0,1.26-.35,1,1,0,0,0,.41-.81.74.74,0,0,0-.37-.65,5.07,5.07,0,0,0-1.25-.42,11.22,11.22,0,0,1-1.88-.59,1.85,1.85,0,0,1-.79-.69,1.91,1.91,0,0,1-.05-1.87,2,2,0,0,1,.6-.69,2.78,2.78,0,0,1,.79-.36,3.62,3.62,0,0,1,1.06-.15,4.28,4.28,0,0,1,1.5.25,2,2,0,0,1,.95.67,2.55,2.55,0,0,1,.43,1.12l-1.21.17a1.3,1.3,0,0,0-.47-.88,1.73,1.73,0,0,0-1.11-.31,2,2,0,0,0-1.21.28.8.8,0,0,0-.36.65.68.68,0,0,0,.15.43,1.09,1.09,0,0,0,.47.33c.12.05.48.15,1.09.32a14.71,14.71,0,0,1,1.82.57,1.84,1.84,0,0,1,.81.64,1.86,1.86,0,0,1,.29,1.06,2,2,0,0,1-.36,1.15,2.29,2.29,0,0,1-1,.85,3.9,3.9,0,0,1-1.53.29,3.35,3.35,0,0,1-2.16-.59A2.71,2.71,0,0,1,268,168.84Z"></path> <path class="cls-2" d="M275.6,162.4V161h1.23v1.41Zm0,8.61v-7.26h1.23V171Z"></path> <path class="cls-2" d="M281.44,169.91l.18,1.08a4.17,4.17,0,0,1-.93.11,2.1,2.1,0,0,1-1-.21,1.17,1.17,0,0,1-.52-.56,4.39,4.39,0,0,1-.15-1.45v-4.17h-.91v-1H279V162l1.22-.74v2.54h1.24v1H280.2V169a1.94,1.94,0,0,0,.07.68.49.49,0,0,0,.21.24.79.79,0,0,0,.42.09A4.66,4.66,0,0,0,281.44,169.91Z"></path> <path class="cls-2" d="M283,173.8l-.14-1.15a2.86,2.86,0,0,0,.7.11,1.35,1.35,0,0,0,.66-.14,1,1,0,0,0,.4-.38,5.24,5.24,0,0,0,.38-.92c0-.07.06-.17.11-.3l-2.76-7.27h1.33l1.51,4.2c.2.54.37,1.1.53,1.68.14-.56.31-1.11.5-1.65l1.56-4.23H289l-2.77,7.38a12.4,12.4,0,0,1-.69,1.65,2.41,2.41,0,0,1-.75.89,1.76,1.76,0,0,1-1,.28A2.43,2.43,0,0,1,283,173.8Z"></path> </svg> 