<svg width="38" height="40" viewBox="0 0 38 40" fill="none" xmlns="http://www.w3.org/2000/svg">
<g clip-path="url(#clip0_246_66)">
<path fill-rule="evenodd" clip-rule="evenodd" d="M35.0099 37.4138C30.2754 41.8351 21.5126 40.4169 13.6219 34.5775V39.1656H9.26123H7.97379C6.56177 39.1656 5.39893 37.9977 5.39893 36.5796V32.492V30.2396V26.1103C-0.705988 17.3929 -1.86883 7.67447 3.15631 2.96123C9.09511 -2.58622 19.6437 0.50033 25.2503 4.96331C21.3049 2.08531 10.341 -1.91886 4.90057 3.16978C0.041553 7.67447 2.07653 17.81 9.46888 25.7767C15.7814 32.5754 23.9213 35.6203 29.1957 33.493C31.3967 32.6171 31.5629 30.1145 31.1476 28.2376H37.5847C37.8339 28.6964 38.2492 30.1979 37.917 32.1166C37.4186 34.2021 36.4634 36.0374 35.0099 37.4138Z" fill="white"/>
<path fill-rule="evenodd" clip-rule="evenodd" d="M9.51038 5.54736C12.2098 5.54736 14.3694 7.71629 14.3694 10.4274C14.3694 13.1386 12.2098 15.3075 9.51038 15.3075C6.81093 15.3075 4.65137 13.1386 4.65137 10.4274C4.65137 7.71629 6.85246 5.54736 9.51038 5.54736ZM16.2798 28.8633V29.197C19.1038 30.8237 21.9279 31.783 24.5027 31.9916V23.6078H36.6295L34.7607 19.3534C34.0547 17.7267 33.0995 17.0176 31.2721 17.0176H24.5027V9.88521C24.5027 8.46707 23.3399 7.29919 21.9279 7.29919H20.6404H16.2798V28.8633ZM5.39891 17.0594C5.35738 18.3941 5.60656 18.686 6.47869 19.9791C7.35082 21.2721 8.34754 22.5234 9.42732 23.6913C10.7563 25.1094 12.1683 26.4024 13.6219 27.4869V17.0594H5.39891V17.0594Z" fill="white"/>
<path fill-rule="evenodd" clip-rule="evenodd" d="M29.1957 11.2617C23.5891 3.92077 12.7082 0.458827 4.90057 4.96352C12.459 -2.00207 25.3749 4.12932 29.4864 8.96769C30.2754 9.76018 30.9814 10.6361 31.5213 11.5954L32.5596 9.13453H34.47L32.5596 13.6809H32.5181H30.6077V13.6392C30.2754 12.805 29.7771 12.0125 29.1957 11.2617Z" fill="white"/>
</g>
<defs>
<clipPath id="clip0_246_66">
<rect width="38" height="40" fill="white"/>
</clipPath>
</defs>
</svg>
